<svg width="512" height="512" xmlns="http://www.w3.org/2000/svg" xml:space="preserve"><g class="layer"><g id="SVGRepo_iconCarrier"><g id="svg_1"><path d="M184.03 259.35h26.42c6.95 0 12.61 5.65 12.61 12.61v75.03c0 8.71 7.08 15.79 15.78 15.79h34.32c8.7 0 15.78-7.08 15.78-15.79v-75.03c0-6.96 5.66-12.61 12.62-12.61h26.42c4.41 0 7.58-1.49 8.93-4.21 1.34-2.71.62-6.14-2.05-9.66l-69.01-90.96c-2.59-3.41-6.09-5.3-9.85-5.3s-7.26 1.89-9.85 5.3l-69.01 90.96c-2.67 3.52-3.39 6.95-2.05 9.66 1.35 2.72 4.52 4.21 8.94 4.21z" id="svg_2" style="fill:#000"/></g></g></g></svg>