<?xml version="1.0"?>
<svg width="512" height="512" xmlns="http://www.w3.org/2000/svg" xmlns:svg="http://www.w3.org/2000/svg" version="1.1" xml:space="preserve">
 <g class="layer">
  <title>Layer 1</title>
  <g id="SVGRepo_bgCarrier" stroke-width="0"/>
  <g id="SVGRepo_tracerCarrier" stroke="#CCCCCC" stroke-linecap="round" stroke-linejoin="round" stroke-width="12.29"/>
  <g id="SVGRepo_iconCarrier">
   <style type="text/css">.st0{fill:#000000;}</style>
   <g id="svg_1">
    <path class="st0" d="m184.03,259.35l26.42,0c6.95,0 12.61,5.65 12.61,12.61l0,75.03c0,8.71 7.08,15.79 15.78,15.79l34.32,0c8.7,0 15.78,-7.08 15.78,-15.79l0,-75.03c0,-6.96 5.66,-12.61 12.62,-12.61l26.42,0c4.41,0 7.58,-1.49 8.93,-4.21c1.34,-2.71 0.62,-6.14 -2.05,-9.66l-69.01,-90.96c-2.59,-3.41 -6.09,-5.3 -9.85,-5.3c-3.76,0 -7.26,1.89 -9.85,5.3l-69.01,90.96c-2.67,3.52 -3.39,6.95 -2.05,9.66c1.35,2.72 4.52,4.21 8.94,4.21z" id="svg_2"/>
   </g>
  </g>
 </g>
</svg>